HIERARCHY
ROOT Hips
{
    OFFSET 0.000000 0.000000 0.000000
    CHANNELS 6 Xposition Yposition Zposition Zrotation Xrotation Yrotation
    JOINT Spine
    {
        OFFSET -0.000000 8.359812 0.000000
        CHANNELS 3 Zrotation Xrotation Yrotation
        JOINT Spine1
        {
            OFFSET -0.000000 28.141317 0.000000
            CHANNELS 3 Zrotation Xrotation Yrotation
            JOINT Neck
            {
                OFFSET -0.000000 28.025745 2.547795
                CHANNELS 3 Zrotation Xrotation Yrotation
                JOINT Head
                {
                    OFFSET -0.000000 14.272848 -2.038978
                    CHANNELS 3 Zrotation Xrotation Yrotation
                    End Site
                    {
                        OFFSET -0.000000 25.487228 0.000000
                    }
                }
            }
            JOINT LeftShoulder
            {
                OFFSET 4.059574 26.120710 -0.180480
                CHANNELS 3 Zrotation Xrotation Yrotation
                JOINT LeftArm
                {
                    OFFSET 11.584161 0.000000 0.000000
                    CHANNELS 3 Zrotation Xrotation Yrotation
                    JOINT LeftForeArm
                    {
                        OFFSET 30.766815 0.000000 0.000000
                        CHANNELS 3 Zrotation Xrotation Yrotation
                        JOINT LeftHand
                        {
                            OFFSET 29.436810 0.000000 0.000000
                            CHANNELS 3 Zrotation Xrotation Yrotation
                            End Site
                            {
                                OFFSET 15.292337 0.000000 0.000000
                            }
                        }
                    }
                }
            }
            JOINT RightShoulder
            {
                OFFSET -4.095355 26.120710 -0.180480
                CHANNELS 3 Zrotation Xrotation Yrotation
                JOINT RightArm
                {
                    OFFSET -11.584161 0.000000 0.000000
                    CHANNELS 3 Zrotation Xrotation Yrotation
                    JOINT RightForeArm
                    {
                        OFFSET -30.766815 0.000000 0.000000
                        CHANNELS 3 Zrotation Xrotation Yrotation
                        JOINT RightHand
                        {
                            OFFSET -29.436810 0.000000 0.000000
                            CHANNELS 3 Zrotation Xrotation Yrotation
                            End Site
                            {
                                OFFSET -15.292337 0.000000 0.000000
                            }
                        }
                    }
                }
            }
        }
    }
    JOINT LeftUpLeg
    {
        OFFSET 10.194892 0.000000 0.000000
        CHANNELS 3 Zrotation Xrotation Yrotation
        JOINT LeftLeg
        {
            OFFSET -0.000000 -32.520012 0.000000
            CHANNELS 3 Zrotation Xrotation Yrotation
            JOINT LeftFoot
            {
                OFFSET -0.000000 -49.106510 0.000000
                CHANNELS 3 Zrotation Xrotation Yrotation
                JOINT LeftToeBase
                {
                    OFFSET -0.000000 -6.626679 15.292337
                    CHANNELS 3 Zrotation Xrotation Yrotation
                    End Site
                    {
                        OFFSET -0.000000 0.000000 4.077957
                    }
                }
            }
        }
    }
    JOINT RightUpLeg
    {
        OFFSET -10.194892 0.000000 0.000000
        CHANNELS 3 Zrotation Xrotation Yrotation
        JOINT RightLeg
        {
            OFFSET -0.000000 -32.520012 0.000000
            CHANNELS 3 Zrotation Xrotation Yrotation
            JOINT RightFoot
            {
                OFFSET -0.000000 -49.106510 0.000000
                CHANNELS 3 Zrotation Xrotation Yrotation
                JOINT RightToeBase
                {
                    OFFSET -0.000000 -6.626679 15.292337
                    CHANNELS 3 Zrotation Xrotation Yrotation
                    End Site
                    {
                        OFFSET -0.000000 0.000000 4.077957
                    }
                }
            }
        }
    }
}
MOTION
Frames:    4
Frame Time:    0.008333
-25.353533    109.493706    57.469761    -7.736926    -1.812326    79.315727    4.936410    -7.511560    -0.565552    0.689307    4.097035    -0.914505    2.968974    19.967802    19.498093    -17.334105    -13.354020    16.051624    6.794948    1.586992    -0.871322    -89.632462    37.669933    27.814146    6.603607    -9.604455    -55.371040    -4.302467    -6.246478    2.125538    -12.029443    5.152551    2.111179    86.494354    61.376942    -15.148490    -7.711785    -8.216911    42.123814    4.954156    -5.668580    -9.412745    7.993077    -11.764714    -2.072251    -9.211791    14.133865    -2.186232    -24.953947    32.985008    30.690790    0.000000    0.000000    0.000000    1.711413    -13.849594    -0.537375    4.634340    21.128359    -1.041805    2.071877    26.461273    -4.656904    0.000000    0.000000    0.000000    
-25.367924    109.163689    57.439648    -7.732975    -1.805077    79.224640    5.040296    -7.502532    -0.494713    0.657512    4.128430    -0.849231    2.981076    20.140526    19.426310    -17.269146    -13.250084    16.013269    6.916392    1.730317    -0.756602    -89.750122    37.684280    27.994017    6.609851    -9.804500    -55.991535    -4.409138    -6.397934    2.037933    -11.901455    5.217728    2.267357    86.126633    61.273270    -15.183920    -7.835928    -8.160686    42.367756    4.683830    -5.517080    -9.270519    7.813917    -11.678077    -2.449195    -9.193733    14.009722    -1.925914    -24.909801    33.031197    30.650890    0.000000    0.000000    0.000000    1.706895    -13.796889    -0.183686    4.522659    20.872601    -1.064571    2.130952    26.634727    -4.465751    0.000000    0.000000    0.000000    
-25.396412    108.762451    57.413147    -7.796081    -1.832376    79.115028    5.145800    -7.571377    -0.410256    0.808537    4.274818    -0.781290    3.013619    20.639992    19.441702    -17.887913    -13.662400    15.826468    6.877650    1.587116    -0.807160    -89.938042    37.474777    28.509356    6.533471    -9.915266    -56.741596    -4.265917    -6.496140    2.128296    -12.126728    5.099554    2.279428    86.128723    61.127167    -15.331063    -8.030748    -8.160374    42.622017    4.940569    -5.442246    -9.288345    7.689222    -11.647891    -2.589152    -9.092853    13.902493    -2.016583    -25.043224    32.668671    30.681242    0.000000    0.000000    0.000000    1.795519    -13.786224    -0.011807    4.264146    20.549461    -0.882177    2.295320    26.563810    -4.430194    0.000000    0.000000    0.000000    
-25.416405    108.303474    57.390259    -7.854175    -1.852194    78.985344    5.268787    -7.600342    -0.324015    0.845194    4.329245    -0.706218    3.055474    20.908976    19.440510    -18.071199    -13.788430    15.768688    6.915316    1.609716    -0.660356    -90.065094    37.510742    28.793623    6.508490    -10.081675    -57.342411    -4.440720    -6.632529    2.020299    -12.084242    5.114853    2.336859    85.884621    61.112854    -15.378290    -8.200085    -8.379027    42.834778    5.122646    -5.597782    -9.388995    7.582144    -11.592543    -2.700793    -9.055575    13.769553    -2.153419    -25.007229    32.121811    30.851780    0.000000    0.000000    0.000000    1.921740    -13.722508    0.055781    3.871487    20.102777    -0.609484    2.066301    26.454306    -4.045666    0.000000    0.000000    0.000000    
